<?xml version="1.0" encoding="UTF-8" standalone="no"?>
<!-- Created with Inkscape (http://www.inkscape.org/) -->

<svg
   xmlns:dc="http://purl.org/dc/elements/1.1/"
   xmlns:cc="http://creativecommons.org/ns#"
   xmlns:rdf="http://www.w3.org/1999/02/22-rdf-syntax-ns#"
   xmlns:svg="http://www.w3.org/2000/svg"
   xmlns="http://www.w3.org/2000/svg"
   xmlns:sodipodi="http://sodipodi.sourceforge.net/DTD/sodipodi-0.dtd"
   xmlns:inkscape="http://www.inkscape.org/namespaces/inkscape"
   width="200"
   height="200"
   viewBox="0 0 200 200"
   id="svg4267"
   version="1.1"
   inkscape:version="0.91 r13725"
   sodipodi:docname="FEA.svg">
  <defs
     id="defs4269" />
  <sodipodi:namedview
     id="base"
     pagecolor="#ffffff"
     bordercolor="#666666"
     borderopacity="1.0"
     inkscape:pageopacity="0.0"
     inkscape:pageshadow="2"
     inkscape:zoom="5.6568544"
     inkscape:cx="93.82805"
     inkscape:cy="103.88058"
     inkscape:document-units="px"
     inkscape:current-layer="layer1"
     showgrid="false"
     units="px"
     inkscape:window-width="1858"
     inkscape:window-height="1057"
     inkscape:window-x="1974"
     inkscape:window-y="-8"
     inkscape:window-maximized="1" />
  <metadata
     id="metadata4272">
    <rdf:RDF>
      <cc:Work
         rdf:about="">
        <dc:format>image/svg+xml</dc:format>
        <dc:type
           rdf:resource="http://purl.org/dc/dcmitype/StillImage" />
        <dc:title />
      </cc:Work>
    </rdf:RDF>
  </metadata>
  <g
     inkscape:label="Layer 1"
     inkscape:groupmode="layer"
     id="layer1"
     transform="translate(0,-852.36216)">
    <path
       style="fill:#ffffff"
       d="m 97.967222,1026.9461 c -2.682426,-5.9547 -4.140447,-10.1022 -5.348041,-15.213 -0.714601,-3.0242 -1.639043,-5.8741 -2.054316,-6.333 -0.415278,-0.4589 -2.40493,-1.2252 -4.421453,-1.703 -4.497506,-1.0655 -14.281589,-5.65694 -17.538738,-8.23044 -4.535049,-3.5833 -10.381408,-9.5958 -12.790545,-13.1542 -2.708433,-4.0004 -5.542817,-10.3257 -7.179688,-16.02231 -0.825118,-2.87156 -1.161882,-5.76427 -1.361963,-11.69884 -0.243997,-7.23705 -0.159267,-8.3248 1.032504,-13.25549 1.339288,-5.54099 3.679406,-11.98228 5.59563,-15.40223 1.076598,-1.92144 1.0785,-1.96572 0.114816,-2.67039 -1.539852,-1.12596 -2.476272,-0.89759 -8.296489,2.02331 -11.167725,5.60456 -27.925418,17.87169 -32.454631,23.75775 -2.47966,3.22249 -3.2721299,3.67391 -3.26425,1.85937 0.02,-4.61409 10.953807,-19.49997 19.816027,-26.9787 8.587302,-7.24675 13.30441,-10.44879 22.65087,-15.37576 2.517793,-1.32725 6.866708,-3.85316 9.664254,-5.61312 2.797548,-1.75997 6.447626,-3.70869 8.111287,-4.33048 l 3.02483,-1.13054 1.422203,1.70357 c 2.213592,2.65152 2.345006,4.58458 0.507739,7.46857 -3.026458,4.7507 -7.611843,14.74974 -8.92402,19.46 -1.714942,6.15607 -2.551348,16.34386 -1.79451,21.85787 0.583269,4.24942 2.35549,9.99294 4.398829,14.25595 2.717146,5.66877 10.158593,11.39877 19.67107,15.14707 4.359062,1.7177 4.942071,1.8178 10.713662,1.8401 7.096791,0.027 9.804961,-0.6327 16.696361,-4.0702 10.76563,-5.3701 14.62631,-9.96022 17.86965,-21.24599 1.66457,-5.79213 2.07567,-11.39766 1.33651,-18.2241 -1.02786,-9.49278 -3.67665,-17.23312 -9.25789,-27.05364 -2.07928,-3.65861 -2.51314,-4.82454 -2.27131,-6.10374 0.39944,-2.11295 2.13532,-4.88744 3.05786,-4.88744 1.25472,0 8.0956,3.31377 12.31171,5.96388 2.20032,1.38305 7.06316,4.1731 10.80631,6.20009 16.2124,8.77939 28.41718,20.2173 37.30897,34.96473 4.34794,7.21129 3.59857,10.06062 -1.08016,4.10704 -1.37849,-1.7541 -3.84293,-4.26504 -5.47651,-5.57986 -1.63359,-1.31482 -4.68684,-3.77757 -6.785,-5.47279 -7.93443,-6.41064 -23.42592,-15.25948 -26.71448,-15.25948 -2.24929,0 -2.29867,1.36046 -0.20104,5.53915 1.06868,2.12892 2.67293,6.27413 3.56498,9.21155 1.47977,4.87275 1.64259,6.09854 1.85794,13.98776 0.22057,8.08043 0.14839,8.99686 -1.1018,13.98774 -0.87675,3.5 -2.40774,7.5321 -4.44207,11.6988 -2.75377,5.6403 -3.59928,6.8652 -7.48954,10.8504 -8.3761,8.5805 -16.69373,13.54844 -26.47282,15.81144 -1.79719,0.4159 -3.68714,1.1757 -4.19989,1.6885 -0.5415,0.5415 -1.24273,2.5549 -1.67296,4.8035 -1.27748,6.6768 -5.97106,19.2367 -7.188679,19.2367 -0.364576,0 -1.152625,-1.0872 -1.751219,-2.4161 z m -2.293536,-59.60614 c -7.85375,-1.23979 -15.457246,-7.50498 -18.958962,-15.62204 -1.751636,-4.0603 -2.113369,-11.28928 -0.829005,-16.56698 1.16639,-4.79292 1.723061,-6.07502 8.588406,-19.78041 3.168233,-6.32478 6.049382,-12.39037 6.402555,-13.47909 0.353172,-1.08872 1.377899,-3.46728 2.277168,-5.28568 0.899269,-1.81841 2.149036,-5.36621 2.777258,-7.884 1.469669,-5.89016 3.539081,-13.09356 3.851211,-13.40569 0.480373,-0.48038 0.800793,0.3729 2.000363,5.32699 2.86461,11.83052 4.70876,16.49635 14.14977,35.79985 3.48899,7.13375 6.69973,14.11491 7.13497,15.51368 2.27457,7.30992 2.43165,12.19354 0.58069,18.05288 -3.69051,11.68253 -15.8872,19.23849 -27.974424,17.33049 z m 7.808864,-8.43239 c 5.66251,-1.33499 10.41928,-5.251 12.65719,-10.42002 0.59452,-1.37321 0.70476,-2.94324 0.48211,-6.8667 -0.37458,-6.60063 -0.65469,-7.45659 -4.9104,-15.00503 -1.97152,-3.49694 -5.31091,-9.84864 -7.42085,-14.1149 -2.10995,-4.26626 -4.05429,-7.75684 -4.320756,-7.75684 -0.266463,0 -2.03369,3.14724 -3.927167,6.99387 -1.893477,3.84663 -5.359196,10.51444 -7.701598,14.81737 -3.396152,6.23865 -4.390314,8.55704 -4.90757,11.44452 -1.022718,5.70911 -0.879122,7.82821 0.762367,11.25068 2.392997,4.98937 6.606216,8.41097 11.9553,9.70914 3.42043,0.83005 3.594875,0.82883 7.331374,-0.0521 z"
       id="path4889"
       inkscape:connector-curvature="0" />
  </g>
</svg>
