<?xml version="1.0" encoding="UTF-8" standalone="no"?>
<!-- Created with Inkscape (http://www.inkscape.org/) -->

<svg
   xmlns:dc="http://purl.org/dc/elements/1.1/"
   xmlns:cc="http://creativecommons.org/ns#"
   xmlns:rdf="http://www.w3.org/1999/02/22-rdf-syntax-ns#"
   xmlns:svg="http://www.w3.org/2000/svg"
   xmlns="http://www.w3.org/2000/svg"
   xmlns:sodipodi="http://sodipodi.sourceforge.net/DTD/sodipodi-0.dtd"
   xmlns:inkscape="http://www.inkscape.org/namespaces/inkscape"
   width="256"
   height="256"
   viewBox="0 0 256 256"
   id="svg2"
   version="1.1"
   inkscape:version="0.91 r13725"
   sodipodi:docname="mop.svg">
  <defs
     id="defs4" />
  <sodipodi:namedview
     id="base"
     pagecolor="#ffffff"
     bordercolor="#666666"
     borderopacity="1.0"
     inkscape:pageopacity="0.0"
     inkscape:pageshadow="2"
     inkscape:zoom="1.979899"
     inkscape:cx="246.21138"
     inkscape:cy="140.25126"
     inkscape:document-units="px"
     inkscape:current-layer="layer1"
     showgrid="false"
     units="px"
     inkscape:window-width="1858"
     inkscape:window-height="1057"
     inkscape:window-x="1420"
     inkscape:window-y="-8"
     inkscape:window-maximized="1" />
  <metadata
     id="metadata7">
    <rdf:RDF>
      <cc:Work
         rdf:about="">
        <dc:format>image/svg+xml</dc:format>
        <dc:type
           rdf:resource="http://purl.org/dc/dcmitype/StillImage" />
        <dc:title></dc:title>
      </cc:Work>
    </rdf:RDF>
  </metadata>
  <g
     inkscape:label="Layer 1"
     inkscape:groupmode="layer"
     id="layer1"
     transform="translate(0,-796.36216)">
    <path
       style="fill:#000000"
       d="m 57.712976,1037.8777 c -2.109154,-0.7905 -2.335729,-1.3199 -0.922712,-2.1569 1.030112,-0.609 2.288163,-0.4986 2.795639,0.2462 0.507502,0.7442 1.898637,1.7106 3.091429,2.1446 1.927735,0.7027 1.927735,0.7929 0,0.804 -1.192792,0.01 -3.426743,-0.4592 -4.964356,-1.0379 z m 13.639186,-0.01 c 0,-0.6903 3.741029,-0.932 8.313388,-0.5387 12.963318,1.116 19.403708,-1.2204 37.2295,-13.5055 2.38557,-1.6439 1.40974,-0.4764 -2.16866,2.5945 -3.57838,3.0711 -9.10861,6.8656 -12.28944,8.4329 -3.180702,1.5654 -5.211282,2.8554 -4.512282,2.867 1.56932,0.022 20.960722,-6.6324 23.157162,-7.948 0.87803,-0.5255 2.29597,-1.0596 3.15121,-1.1838 0.85512,-0.1256 3.45757,-1.9323 5.78315,-4.0147 7.31811,-6.5578 10.38741,-7.9965 14.70006,-6.893 5.50803,1.4089 12.07885,1.5726 12.88702,0.3207 0.36999,-0.5723 1.89493,-0.4161 3.38879,0.3499 1.81494,0.93 3.01345,0.9312 3.61222,0 0.4927,-0.764 1.9605,-1.3877 3.26168,-1.3877 1.30118,0 4.19045,-1.6753 6.42067,-3.7225 4.43145,-4.0663 5.59657,-7.455 1.52494,-4.4349 -2.19163,1.6258 -2.17352,1.4757 0.13598,-1.1218 1.4664,-1.6493 3.58075,-2.6624 4.69884,-2.2514 1.11808,0.4108 2.04746,0.213 2.06502,-0.4397 0.0507,-1.8863 5.68335,-8.28863 5.71886,-6.50113 0.0569,2.86783 -14.5167,18.38323 -19.23817,20.48123 -4.46014,1.9807 -15.80456,2.0367 -26.27258,0.127 -3.55398,-0.6478 -3.33471,-0.4172 1.21369,1.2762 7.15763,2.6648 22.17192,3.6484 26.90764,1.7629 2.02768,-0.8059 4.5521,-1.3284 5.61004,-1.1583 1.05797,0.1695 3.33504,-0.5709 5.06029,-1.6457 1.72527,-1.0727 5.54409,-2.7075 8.48632,-3.632 8.61997,-2.7059 18.55067,-15.3845 11.63872,-14.8589 -1.58637,0.1205 -2.32158,-0.5827 -1.97106,-1.88513 2.17423,-8.07836 1.75704,-8.95556 -1.75447,-3.69054 -2.23183,3.34634 -3.80531,4.62704 -4.2541,3.46204 -0.44848,-1.16469 -1.27778,-0.48945 -2.24094,1.82503 -0.84093,2.0207 -2.28468,4.1212 -3.20833,4.668 -1.24541,0.7374 -1.23486,0.1988 0.0408,-2.0845 0.94601,-1.693 1.39013,-4.28653 0.98691,-5.76342 -0.56944,-2.08595 -0.15661,-2.50966 1.85072,-1.89937 1.64129,0.49886 3.8391,-0.4821 6.02489,-2.68888 4.60808,-4.65284 5.6098,-4.41637 5.6098,1.3243 0,2.66581 0.65069,4.84704 1.44583,4.84704 2.31293,0 1.66588,4.48423 -1.32486,9.18213 -5.22241,8.2031 -35.3731,19.5349 -45.40349,17.0631 -2.52879,-0.6225 -8.31413,-1.8917 -12.85636,-2.819 l -8.25851,-1.6848 -5.47663,4.735 c -3.01215,2.6056 -8.72959,5.8534 -12.70567,7.2164 -3.9759,1.3653 -9.36551,3.3777 -11.97689,4.4732 -5.32787,2.2379 -35.01175,2.8667 -35.01175,0.7404 z m -3.901025,-3.8095 c -0.521644,-1.3013 -2.331985,-1.6031 -6.130557,-1.021 -4.284524,0.6559 -5.390347,0.3825 -5.390347,-1.3324 0,-1.2254 0.675335,-1.7336 1.566289,-1.178 0.861455,0.538 3.843436,1.0558 6.626608,1.1505 2.783175,0.087 7.988079,0.9184 11.566451,1.8334 5.992195,1.5312 13.134987,1.2702 19.753457,-0.7228 2.26691,-0.6822 2.23258,-0.5378 -0.23507,0.9876 -4.08571,2.5249 -26.765906,2.7566 -27.756831,0.2827 z m -1.882187,-4.6305 c -3.105538,-0.9531 -3.196406,-1.1293 -0.645336,-1.2465 5.650083,-0.2629 17.95132,-7.3035 22.662364,-12.9715 4.57953,-5.5088 13.061502,-25.27346 15.482592,-36.07708 1.37654,-6.14289 7.33723,-12.68677 14.54711,-15.97067 3.27818,-1.49312 5.05891,-3.2737 5.06029,-5.06006 10e-4,-1.51594 0.76136,-2.7579 1.68909,-2.75978 0.92767,-0.001 2.22893,-0.57087 2.89152,-1.26423 0.68438,-0.71609 0.51549,-0.88443 -0.39096,-0.38969 -1.92301,1.04963 -5.34985,-5.54953 -3.98233,-7.66878 0.61792,-0.95773 0.27642,-1.08772 -0.95024,-0.36165 -1.36184,0.80633 -1.66665,0.51401 -1.05544,-1.01178 0.47285,-1.17999 -0.1168,-3.61912 -1.30999,-5.42031 -1.3298,-2.00695 -0.73047,-1.6664 1.54759,0.87964 2.10562,2.35325 3.72047,5.86982 3.72461,8.11099 0.005,3.28337 0.43763,3.7603 2.53727,2.803 3.16051,-1.4409 17.33013,-1.38686 21.6861,0.082 2.77521,0.9363 3.56204,0.41354 5.36517,-3.5648 1.16229,-2.56416 2.13865,-3.71019 2.16981,-2.54668 0.031,1.16338 -0.94833,3.48952 -2.17648,5.169 -1.68712,2.30712 -1.85915,3.72308 -0.70339,5.79133 0.8413,1.50569 1.35825,3.47614 1.14865,4.37856 -0.20946,0.90237 1.6068,2.16052 4.03617,2.79543 2.42936,0.63507 6.00776,2.77523 7.95191,4.75595 3.08664,3.14467 3.63428,5.27712 4.31884,16.8182 0.69165,11.66103 1.17854,13.52277 4.13615,15.81681 3.24799,2.519 2.6215,3.6285 -0.85378,1.5118 -2.99066,-1.8214 -4.78933,-8.4936 -4.78933,-17.76621 0,-10.2779 -2.42246,-15.87139 -7.91148,-18.26671 -5.83821,-2.548 -6.81328,-2.01103 -4.41499,2.43122 1.21327,2.24715 2.15,5.20726 2.08164,6.57801 -0.0831,1.67682 -0.48803,1.34525 -1.23624,-1.01355 -1.45104,-4.57433 -4.79089,-9.65023 -6.34974,-9.65023 -0.67731,0 -2.88564,-1.24631 -4.90755,-2.76964 -5.14966,-3.88006 -13.18788,-3.58936 -19.81173,0.71597 -2.94941,1.91726 -4.91055,2.78523 -4.35805,1.92898 1.42725,-2.21198 -4.85102,-0.19503 -9.81359,3.15263 -4.17097,2.81359 -8.33947,7.79131 -8.33947,9.95845 0,0.71011 1.4243,0.10354 3.16489,-1.34682 3.15436,-2.62928 3.15404,-2.62313 -0.1046,1.87151 -4.40737,6.07807 -10.637452,21.01246 -9.720512,23.30139 0.40659,1.0145 -1.4691,4.9195 -4.16815,8.6777 -2.69888,3.7583 -4.55815,7.1669 -4.13169,7.5765 0.83059,0.7952 -9.217705,7.2354 -14.426035,9.246 -1.893024,0.7308 -2.281203,1.2576 -0.975485,1.3231 1.927732,0.09 1.927732,0.2585 0,1.4522 -2.485364,1.5382 -3.659593,1.5382 -8.674847,0 z m 86.02548,-69.24222 c -0.49146,-0.76168 -1.66846,-1.37534 -2.61551,-1.36355 -1.03463,0.0116 -0.85637,0.55693 0.44681,1.36355 2.77751,1.71929 3.27803,1.71929 2.1687,0 z m -23.14324,-1.369 c 0.50659,-0.78501 -0.0739,-1.01716 -1.36038,-0.5443 -2.50475,0.92067 -2.96307,1.9133 -0.88335,1.9133 0.74821,0 1.75799,-0.61596 2.24373,-1.369 z m 22.17877,-3.7568 c -1.76904,-2.04156 -4.7062,-2.47964 -3.43692,-0.51252 0.45646,0.7071 -0.64379,1.57201 -2.44474,1.9217 -1.80103,0.34978 -0.86377,0.58035 2.08266,0.51255 4.22092,-0.097 5.02653,-0.50477 3.799,-1.92173 z m -13.88353,-2.07149 c 1.37588,0.0526 2.87814,-0.48673 3.33834,-1.19986 0.46022,-0.71328 -0.3402,-1.28829 -1.77879,-1.27786 -4.40544,0.0313 -9.12155,1.61423 -9.12155,3.06045 0,0.77361 1.10298,0.92452 2.53013,0.34603 1.39154,-0.56401 3.65589,-0.98187 5.03187,-0.92876 z m -83.620207,43.33187 c -7.117074,-1.71517 -20.173634,-9.45183 -21.777156,-12.904 -0.866312,-1.86504 -1.348658,-14.8586 -1.182212,-31.84677 0.282065,-28.79096 0.998742,-32.92909 5.703055,-32.92909 0.965038,0 2.846371,-3.76113 4.18071,-8.35804 2.407726,-8.29491 7.804643,-17.90372 10.074365,-17.93658 0.650539,-0.009 -0.176429,1.81116 -1.837687,4.04588 -3.754236,5.04997 -6.595868,12.72481 -7.724957,20.86407 -0.948953,6.84079 0.343905,3.81562 3.121362,-7.3036 0.90825,-3.63606 3.284392,-9.08893 5.280311,-12.11725 1.995924,-3.02845 3.328676,-5.50627 2.961683,-5.50627 -1.380147,0 4.013884,-10.62328 8.437961,-16.61804 2.529408,-3.42749 5.497631,-7.94866 6.596069,-10.0469 1.098435,-2.09843 3.819249,-5.52593 6.046245,-7.6166 2.227003,-2.09092 4.067161,-4.5042 4.089246,-5.36294 0.02219,-0.85892 0.987617,-2.31471 2.145618,-3.23534 1.678865,-1.33449 3.949074,-0.97251 11.204892,1.78675 5.00487,1.90308 11.051592,3.67037 13.437042,3.9274 3.89678,0.41989 4.2866,0.1157 3.83749,-2.99464 -0.27502,-1.90415 -4.34145,-10.51836 -9.036362,-19.14262 -4.69492,-8.62439 -8.53627,-17.46018 -8.53627,-19.63508 0,-8.16821 7.66056,-10.34453 16.619702,-4.72178 5.31929,3.33833 15.72199,19.06598 21.22374,32.08747 2.75048,6.51026 5.66393,11.38664 6.80841,11.39581 1.10007,0.008 5.20247,-3.0996 9.11624,-6.90789 3.91378,-3.80831 7.70523,-6.9243 8.42535,-6.9243 0.72014,0 2.47328,1.11188 3.89597,2.47095 1.42245,1.35885 5.39034,4.27386 8.81754,6.47741 3.42703,2.20355 6.86568,5.14241 7.64129,6.53056 0.7756,1.38815 2.36326,2.52398 3.52808,2.52398 1.16481,0 2.11789,0.56168 2.11789,1.24806 0,0.68652 2.11442,2.44731 4.69885,3.91304 2.58434,1.46579 5.67478,4.45181 6.86753,6.63559 1.19283,2.18376 4.79675,6.30139 8.009,9.15045 3.21201,2.84886 7.32398,8.02576 9.13769,11.50411 2.48664,4.76929 4.11771,6.3242 6.63352,6.3242 1.83483,0 4.06854,0.84544 4.96375,1.87866 4.6368,5.35118 10.563,54.78033 7.27378,60.66717 -2.09838,3.75557 -9.94674,8.06957 -14.69198,8.07574 -2.1868,0.003 -3.97609,0.59906 -3.97609,1.32492 0,0.72593 -2.43973,1.96871 -5.42172,2.76195 -11.1733,2.97211 -28.24272,0.71405 -30.85454,-4.08171 -4.00199,-7.34815 -6.05689,-12.85653 -7.74907,-20.77255 -1.05849,-4.95084 -2.59934,-10.87094 -3.42415,-13.15596 -5.21393,-14.4435 -6.27853,-20.2525 -4.24856,-23.18074 1.51287,-2.18255 1.66561,-4.13732 0.61723,-7.89972 -1.83665,-6.59038 -0.20781,-16.31594 3.73173,-22.28091 1.74412,-2.641 3.95547,-7.9177 4.91393,-11.72599 1.71846,-6.82758 1.67989,-6.98698 -2.76301,-11.41471 -6.18531,-6.16436 -9.21106,-6.83344 -13.10619,-2.89794 -1.76062,1.7787 -5.30504,4.79191 -7.87652,6.69606 l -4.67543,3.46201 2.87738,13.15603 c 1.58256,7.23577 3.67579,21.09517 4.65158,30.79889 1.51214,15.03923 2.25806,18.14297 5.05365,21.03081 3.14806,3.25176 3.16321,3.37946 0.37925,3.17845 -1.67749,-0.12097 -2.60737,-0.94095 -2.20513,-1.9448 0.38235,-0.95454 0.0728,-2.10405 -0.68727,-2.55426 -0.763,-0.45154 -1.45802,1.23558 -1.5505,3.76401 -0.10654,2.91722 -0.42047,3.57606 -0.86327,1.81281 -1.12917,-4.49661 -2.94497,-5.35051 -2.94497,-1.38479 0,2.01833 -0.67125,4.31256 -1.49162,5.09848 -1.02489,0.98167 -1.4208,0.62424 -1.26508,-1.14254 0.13452,-1.52565 -0.72258,-2.57962 -2.10755,-2.59202 -3.69347,-0.0327 -6.83532,-3.28602 -6.02836,-6.24165 1.05669,-3.87048 -3.38537,-27.83764 -7.54955,-40.73407 -1.95194,-6.04497 -3.2366,-11.29004 -2.85477,-11.65572 1.07021,-1.02503 1.34276,-0.3828 5.63092,13.26389 3.30213,10.50871 7.93113,34.42747 8.04734,41.58013 0.0401,2.49584 5.34029,2.13478 6.36943,-0.43398 0.47695,-1.19075 1.52259,-1.77711 2.32336,-1.30312 1.84298,1.09106 1.8394,0.9754 -0.6749,-21.71554 -2.79975,-25.26797 -10.77004,-57.60702 -13.76134,-55.83627 -0.65329,0.38681 -0.88619,-0.4013 -0.51774,-1.75119 0.78616,-2.87933 -9.58845,-23.35828 -14.89109,-29.39443 -2.01407,-2.29252 -4.35366,-3.75875 -5.1992,-3.25811 -0.88379,0.5231 -1.11553,0.25624 -0.54503,-0.62784 1.35528,-2.10061 -5.41101,-6.13449 -9.350662,-5.57488 -1.754,0.24918 -3.90549,1.54779 -4.78102,2.88574 -1.29651,1.98084 0.33119,6.00364 8.762002,21.65549 6.30954,11.71394 10.87419,18.72458 11.68556,17.94754 0.81131,-0.77716 1.33136,-0.44586 1.33136,0.84813 0,1.1679 -0.54206,2.12337 -1.20477,2.12337 -0.66271,0 -1.20485,0.86406 -1.20485,1.92006 0,2.11611 -8.34427,3.86718 -9.54675,2.00359 -0.40947,-0.63457 -1.89716,-1.15394 -3.305832,-1.15394 -1.40866,0 -5.76195,-1.55533 -9.67384,-3.45628 -3.91195,-1.90101 -7.197386,-3.45895 -7.300983,-3.46208 -0.764338,-0.0234 -14.992596,18.64454 -14.992596,19.67095 0,0.71974 -2.602454,4.7897 -5.78323,9.04428 -6.189573,8.27906 -7.557526,15.22912 -3.614509,18.36344 1.740177,1.38332 2.168707,1.36521 2.168707,-0.0915 0,-1.10957 1.128467,-0.65538 2.901959,1.16798 3.032776,3.11795 7.218676,2.8094 7.218676,-0.53217 0,-1.37624 0.819536,-1.14417 2.858822,0.80914 3.694995,3.53912 7.126797,2.27577 6.795448,-2.50158 -0.219437,-3.16413 0.266023,-3.65134 3.357984,-3.3705 3.301562,0.29976 3.395432,0.16668 1.084357,-1.53758 -1.391578,-1.02606 -2.53016,-3.37211 -2.53016,-5.21322 0,-4.09515 -3.749164,-9.5031 -6.588106,-9.5031 -2.488101,0 -2.728297,-4.52533 -0.464262,-8.74634 2.891849,-5.39139 8.958659,-10.64142 12.296993,-10.64142 6.14033,0 24.317292,7.13674 27.408102,10.76114 1.65765,1.94381 3.72718,3.11185 4.59904,2.5956 0.8718,-0.51611 1.95172,-0.37032 2.39971,0.32395 0.44798,0.69427 -0.32035,1.68288 -1.70728,2.1969 -1.75522,0.6504 -3.62086,-0.29913 -6.13649,-3.12344 -2.51942,-2.82854 -7.24021,-5.22814 -15.581372,-7.91991 l -11.96706,-3.86189 -3.712829,3.32221 c -2.042042,1.82707 -4.618972,4.99014 -5.726497,7.02892 -1.886596,3.47281 -1.741018,3.95338 2.306071,7.61205 2.667984,2.41199 4.319783,5.29843 4.319783,7.54852 0,2.00368 0.975925,4.41901 2.168713,5.36717 1.192779,0.94823 2.168749,2.84288 2.168749,4.21032 0,1.36754 1.62646,5.58816 3.6145,9.37922 2.5696,4.90018 3.61446,9.13681 3.61446,14.65469 0,4.26886 0.63563,7.76162 1.41255,7.76162 0.77674,0 2.43246,1.491 3.679,3.31333 1.932772,2.8256 2.026692,4.71144 0.638192,12.80973 -0.895572,5.22307 -2.586192,13.08472 -3.757072,17.47038 -1.17089,4.38582 -1.77306,8.52543 -1.33833,9.19913 0.43466,0.6737 -0.50615,5.11207 -2.09076,9.86309 -1.58456,4.75089 -2.88098,9.39497 -2.88098,10.3202 0,6.36282 -23.997001,12.30321 -37.021405,9.16452 z m 32.037779,-16.15613 c 3.536196,-1.29363 6.429446,-2.83942 6.429446,-3.4353 0,-0.59589 0.43824,-2.17738 0.9739,-3.51433 0.79083,-1.97407 0.45108,-2.23017 -1.80715,-1.36337 -1.52978,0.58715 -7.543145,1.87803 -13.363224,2.86852 -12.806168,2.17939 -24.462219,0.34349 -36.596227,-5.76405 -4.269345,-2.14896 -8.305145,-4.13587 -8.968449,-4.41554 -0.663312,-0.27961 -0.973169,0.9632 -0.688589,2.76174 0.284599,1.79861 1.363619,3.09897 2.397839,2.8896 1.034216,-0.20927 1.499077,0.21045 1.033033,0.9327 -1.088335,1.68672 5.675009,6.24506 12.198883,8.22167 15.292766,4.63358 27.263104,4.88882 38.390538,0.81836 z m 3.537806,-20.87564 c 5.35461,-2.30539 8.67486,-5.45665 8.67486,-8.23355 0,-1.26682 -1.67924,-1.18696 -6.86761,0.32679 -9.118583,2.66065 -27.086927,2.55922 -35.574377,-0.20077 -3.725628,-1.21162 -7.511853,-1.76601 -8.413836,-1.23205 -0.966721,0.57229 -1.242868,0.35533 -0.67267,-0.52823 0.543465,-0.84243 -0.467232,-1.92583 -2.306777,-2.47299 -1.800731,-0.53554 -5.001033,-2.13841 -7.111759,-3.56182 -4.93378,-3.32708 -5.560032,-3.25988 -5.560032,0.59724 0,3.84995 2.515306,6.50869 6.157703,6.50869 1.478278,0 2.305852,0.59189 1.839057,1.31534 -2.549246,3.95084 29.039279,11.72902 41.160627,10.13506 1.987988,-0.26127 5.891664,-1.45555 8.674814,-2.65371 z m 118.218732,-3.55521 c 2.59754,-1.08034 4.24403,-2.42289 3.65847,-2.9836 -0.5853,-0.56072 0.0376,-0.61434 1.38517,-0.11912 3.397,1.2485 12.45181,-4.38775 13.50485,-8.40628 1.07064,-4.08584 -0.66003,-7.36407 -2.43527,-4.61287 -0.66682,1.03344 -1.72396,1.90759 -2.34944,1.94268 -0.62534,0.0351 -4.97008,1.83575 -9.65485,4.00146 -10.29501,4.75937 -29.31582,7.62455 -35.58021,5.35985 -2.9735,-1.07525 -4.58674,-1.05144 -5.87571,0.0854 -1.33888,1.18142 -1.5253,1.14121 -0.75624,-0.16326 0.56115,-0.95208 0.33126,-1.73106 -0.51084,-1.73106 -1.75614,0 -1.9896,2.74092 -0.42453,4.98543 3.34397,4.7962 28.87151,5.86912 39.0386,1.64096 z m -11.85606,-19.21784 c 4.71841,-0.83197 9.22945,-1.99241 10.02484,-2.57869 0.79513,-0.58629 3.18472,-1.4633 5.31025,-1.94894 6.38291,-1.45825 12.76211,-7.49943 12.76211,-12.08568 0,-2.2172 -0.31783,-4.0312 -0.70628,-4.0312 -1.66209,0 -6.31077,4.74727 -5.65054,5.77052 0.3981,0.61705 -0.17161,0.79268 -1.26604,0.39042 -1.09435,-0.40226 -5.68159,1.02892 -10.19375,3.18028 -7.3439,3.50175 -9.95435,3.95457 -24.90643,4.32028 -12.24671,0.29939 -17.31719,-0.0796 -19.00606,-1.42255 -2.03371,-1.6167 -2.17524,-1.42705 -1.20938,1.62017 1.53861,4.85399 2.76698,5.80317 9.00877,6.96068 8.35209,1.54885 16.36385,1.49437 25.83251,-0.17529 z M 86.533118,930.70675 c 2.89161,-0.55845 2.89161,-0.55845 0,-1.57381 -1.590382,-0.55844 -4.551097,-1.86311 -6.579366,-2.89931 -2.028269,-1.03606 -5.672115,-1.82968 -8.097436,-1.76365 -2.425311,0.066 -6.946632,-1.16803 -10.047385,-2.7425 -3.100758,-1.57432 -7.064151,-3.15676 -8.807574,-3.51643 -2.865675,-0.59119 -3.125827,-0.17011 -2.711208,4.38877 0.442969,4.87026 0.72423,5.10125 8.230175,6.75892 4.274324,0.94389 10.048659,2.22057 12.831838,2.83691 2.783179,0.61638 6.686852,0.659 8.674832,0.0946 1.987988,-0.56407 4.915742,-1.27682 6.506124,-1.58389 z m -41.663625,-5.40131 c -0.461518,-1.10479 -0.804125,-0.77654 -0.873498,0.83669 -0.06278,1.45994 0.278937,2.27785 0.759361,1.81771 0.480437,-0.46021 0.531798,-1.65466 0.114141,-2.6544 z m 42.885455,-3.26212 c -0.47088,-1.17538 -1.16621,-1.83991 -1.54522,-1.47685 -0.37897,0.36282 -0.26021,1.32449 0.26393,2.13692 1.42562,2.20945 2.25896,1.78018 1.28129,-0.66007 z m 4.33747,0 c -0.47091,-1.17538 -1.16635,-1.83991 -1.54527,-1.47685 -0.37897,0.36282 -0.26022,1.32449 0.26392,2.13692 1.42567,2.20945 2.25894,1.78018 1.28135,-0.66007 z m -2.21121,-5.53465 c 0.93034,-0.72925 -2.63107,-11.12942 -4.843591,-14.14447 -1.791384,-2.44104 -2.86577,-2.82568 -4.933601,-1.76557 -4.07513,2.08886 -20.08248,0.67316 -23.229298,-2.05463 -1.47951,-1.28248 -3.386254,-1.91964 -4.2372,-1.41588 -2.066518,1.22337 -5.225916,7.24139 -6.931752,13.20377 l -1.386717,4.84701 15.323817,0.13475 c 8.428096,0.0741 16.950346,0.79825 18.938336,1.60917 2.996107,1.22207 9.517486,0.98312 11.300006,-0.41415 z m 2.70891,-4.44563 c -0.36374,-1.33307 -0.66119,-0.24245 -0.66119,2.42342 0,2.66577 0.29745,3.75628 0.66119,2.42345 0.3636,-1.33282 0.3636,-3.51398 0,-4.84687 z M 184.125,909.76865 c 9.75913,-1.79582 20.25763,-5.64751 20.21915,-7.41812 -0.0562,-2.59436 -2.58247,-4.23071 -7.50336,-4.86028 -4.18238,-0.5352 -5.76717,-0.10284 -7.22905,1.97183 -1.02961,1.46157 -5.32459,3.52328 -9.54414,4.58159 -8.20554,2.05807 -12.30592,4.45573 -11.02233,6.44514 0.99805,1.54682 3.37754,1.43333 15.07973,-0.72016 z m -93.800862,-4.52599 c -1.70439,-2.80741 -2.11595,-1.90877 -0.72077,1.57369 0.49587,1.23768 1.20598,1.95851 1.57835,1.60198 0.37229,-0.3566 -0.0126,-1.78565 -0.85758,-3.17567 z m 70.209812,0.67522 c -0.46151,-1.10487 -0.80414,-0.77668 -0.87356,0.83655 -0.0626,1.45988 0.27903,2.27778 0.75949,1.81759 0.48038,-0.46015 0.53175,-1.6546 0.11402,-2.65414 z m 4.79558,-1.12535 c 0,-0.76166 -0.68905,-1.38491 -1.53115,-1.38491 -0.84211,0 -1.12896,0.62325 -0.63756,1.38491 0.49152,0.7618 1.18047,1.38487 1.53112,1.38487 0.35065,0 0.63759,-0.62307 0.63759,-1.38487 z m -78.958942,-6.2749 c -1.318828,-1.92801 -2.739485,-3.17816 -3.157023,-2.77819 -0.695323,0.66592 3.795093,6.28351 5.022753,6.28351 0.29272,0 -0.54684,-1.57744 -1.86573,-3.50532 z m 90.531952,-0.66351 c 4.37726,-1.40575 12.02026,-2.75652 16.98431,-3.00182 10.26136,-0.50706 11.30727,-2.1165 5.79307,-8.91447 -4.94959,-6.10186 -8.8234,-8.78075 -10.62764,-7.34906 -0.86825,0.68891 -2.11122,0.79073 -2.76194,0.22607 -0.65074,-0.56459 -0.76878,-0.33088 -0.26249,0.51939 1.93861,3.25549 -9.32285,8.74142 -12.67113,6.17256 -0.83666,-0.64182 -3.61152,-1.59494 -6.16652,-2.11814 -4.9976,-1.0232 -4.50283,-1.70402 -6.91971,9.5228 -1.6563,7.69417 3.39248,9.1945 16.63205,4.94267 z m 30.53187,-3.69021 c -1.70427,-2.80728 -2.11596,-1.90875 -0.72085,1.57371 0.49593,1.23756 1.20617,1.95851 1.57842,1.60191 0.3723,-0.3566 -0.0121,-1.78552 -0.85757,-3.17562 z m -5.7701,-10.57237 c -2.43461,-3.38936 -5.54962,-6.57529 -6.92222,-7.07977 -1.6007,-0.58831 -1.19727,0.23543 1.12482,2.29657 1.99127,1.76767 4.8467,5.20219 6.34537,7.63232 1.49881,2.43007 2.98448,4.16971 3.30171,3.86585 0.3173,-0.30386 -1.41513,-3.32556 -3.84968,-6.71497 z m -42.5761,1.55366 c -0.46153,-1.10474 -0.80416,-0.77661 -0.87359,0.83662 -0.0626,1.45988 0.27891,2.27779 0.75944,1.81764 0.48037,-0.46013 0.53175,-1.6546 0.11409,-2.65426 z m 19.49102,-3.72705 c 1.27921,-1.43102 3.19739,-2.88008 4.26263,-3.22027 1.174,-0.37474 1.80181,-2.314 1.59432,-4.92365 -0.18851,-2.36783 0.41558,-4.75415 1.34238,-5.30277 1.04949,-0.62132 1.29583,-0.39453 0.65332,0.60127 -0.56747,0.87942 -0.34267,1.5988 0.49944,1.5988 0.84206,0 1.53115,-0.56768 1.53115,-1.26172 0,-1.4145 -8.2997,-8.43203 -9.9729,-8.43203 -0.59196,0 -4.10735,-2.78195 -7.812,-6.18179 -3.70474,-3.40008 -8.7007,-7.15512 -11.10224,-8.3446 -2.40151,-1.18954 -4.36631,-2.77001 -4.36631,-3.51216 0,-0.74201 -1.07631,-1.34921 -2.39159,-1.34921 -2.45449,0 -13.06349,10.83042 -12.44542,12.70516 0.18934,0.57389 -0.61845,0.68965 -1.79505,0.25734 -1.22457,-0.45012 -2.52985,0.18887 -3.05277,1.49447 -2.31127,5.76865 4.03739,3.28403 11.83935,-4.63354 4.91155,-4.98423 7.71464,-4.68375 14.58801,1.56372 2.89278,2.62933 5.28415,3.77112 6.50617,3.10607 1.52242,-0.8282 1.56332,-0.66941 0.1926,0.74897 -1.20326,1.24508 -1.30141,2.58438 -0.31856,4.34353 1.0352,1.85247 0.75313,3.52003 -1.03764,6.13793 -2.09259,3.05889 -2.15279,3.77991 -0.40453,4.83981 2.73169,1.65603 4.60784,1.6195 3.51867,-0.0686 -1.07113,-1.66006 1.71433,-6.95283 3.65928,-6.95283 0.79754,0 0.65377,1.15549 -0.33168,2.66711 -1.28669,1.97319 -1.32901,3.52908 -0.16271,5.98078 0.86697,1.82252 1.24273,4.98453 0.83517,7.02675 -0.86515,4.33517 0.87458,4.79868 4.17091,1.11122 z m -6.71983,-5.44503 c -0.86733,-2.15566 -1.05642,-2.14258 -2.41067,0.16818 -0.80828,1.37911 -1.04608,3.5603 -0.52842,4.84688 0.86734,2.15573 1.05649,2.1425 2.41067,-0.16812 0.80828,-1.37925 1.04601,-3.5603 0.52842,-4.84694 z m 11.87404,5.82537 c -0.48043,-0.46019 -1.72755,-0.50939 -2.77111,-0.10939 -1.15342,0.44215 -0.8108,0.77028 0.87346,0.83676 1.52412,0.0596 2.37811,-0.26716 1.89765,-0.72737 z m -17.05975,-6.51541 c 0.0562,-0.61623 -0.54897,-0.7352 -1.34416,-0.26443 -0.79513,0.4706 -1.40002,2.22112 -1.3442,3.88991 0.0976,2.92536 0.14624,2.9347 1.3442,0.26455 0.68352,-1.52334 1.28835,-3.27384 1.34416,-3.89003 z m -7.0133,104.86775 c 0.0694,-1.61324 0.41205,-1.94136 0.87356,-0.83675 0.41768,0.99978 0.36631,2.19423 -0.11401,2.65439 -0.48047,0.46014 -0.82222,-0.35784 -0.7595,-1.81764 z m -42.76534,-36.58285 c -0.49141,-0.76161 -0.20455,-1.38472 0.63756,-1.38472 0.84216,0 1.53113,0.62311 1.53113,1.38472 0,0.76174 -0.28693,1.38492 -0.63758,1.38492 -0.35065,0 -1.03966,-0.62318 -1.53111,-1.38492 z m 38.40581,-4.84688 c -0.10301,-3.15705 -0.46268,-3.65987 -1.49595,-2.09466 -1.06853,1.61874 -1.3075,1.3964 -1.11589,-1.03873 0.13398,-1.70398 0.74331,-3.09833 1.3542,-3.09833 1.49623,0 3.08176,6.35695 2.1439,8.59582 -0.41246,0.98475 -0.8112,-0.0787 -0.88626,-2.3641 z m -38.76727,-4.41662 c 1.39161,-0.34841 3.66874,-0.34841 5.06035,0 1.3916,0.34823 0.25307,0.63326 -2.5302,0.63326 -2.78315,0 -3.92168,-0.28503 -2.53015,-0.63326 z m 11.4332,-1.8151 c 0,-1.90422 0.32834,-2.68315 0.72931,-1.73113 0.4011,0.95205 0.4011,2.51005 0,3.46225 -0.40097,0.95196 -0.72931,0.17296 -0.72931,-1.73112 z"
       id="path3389"
       inkscape:connector-curvature="0" />
  </g>
</svg>
