<?xml version="1.0" encoding="UTF-8" standalone="no"?>
<!-- Created with Inkscape (http://www.inkscape.org/) -->

<svg
   xmlns:dc="http://purl.org/dc/elements/1.1/"
   xmlns:cc="http://creativecommons.org/ns#"
   xmlns:rdf="http://www.w3.org/1999/02/22-rdf-syntax-ns#"
   xmlns:svg="http://www.w3.org/2000/svg"
   xmlns="http://www.w3.org/2000/svg"
   xmlns:sodipodi="http://sodipodi.sourceforge.net/DTD/sodipodi-0.dtd"
   xmlns:inkscape="http://www.inkscape.org/namespaces/inkscape"
   width="200"
   height="200"
   viewBox="0 0 200 200"
   id="svg4267"
   version="1.1"
   inkscape:version="0.91 r13725"
   sodipodi:docname="N64.svg">
  <defs
     id="defs4269" />
  <sodipodi:namedview
     id="base"
     pagecolor="#ffffff"
     bordercolor="#666666"
     borderopacity="1.0"
     inkscape:pageopacity="0.0"
     inkscape:pageshadow="2"
     inkscape:zoom="2"
     inkscape:cx="-26.502846"
     inkscape:cy="58.399992"
     inkscape:document-units="px"
     inkscape:current-layer="layer1"
     showgrid="false"
     units="px"
     inkscape:window-width="1858"
     inkscape:window-height="1057"
     inkscape:window-x="1974"
     inkscape:window-y="-8"
     inkscape:window-maximized="1" />
  <metadata
     id="metadata4272">
    <rdf:RDF>
      <cc:Work
         rdf:about="">
        <dc:format>image/svg+xml</dc:format>
        <dc:type
           rdf:resource="http://purl.org/dc/dcmitype/StillImage" />
        <dc:title />
      </cc:Work>
    </rdf:RDF>
  </metadata>
  <g
     inkscape:label="Layer 1"
     inkscape:groupmode="layer"
     id="layer1"
     transform="translate(0,-852.36216)">
    <path
       style="fill:#ffffff"
       d="m 86.802349,1034.995 c -7.205246,-2.9915 -13.118785,-5.4627 -13.141195,-5.4918 -0.02241,-0.029 -3.116969,-5.6588 -6.87679,-12.5107 -3.759822,-6.8519 -6.943409,-12.6028 -7.074629,-12.7797 -0.214668,-0.2894 -1.44369,0.177 -12.258222,4.6533 l -12.019642,4.975 L 22.715935,1008.632 10,1003.4229 l 0.04896,-53.16394 0.04896,-53.16398 12.051736,-3.94407 c 6.628462,-2.16927 12.182955,-3.94785 12.343317,-3.95235 0.160362,0 5.95412,2.10861 12.875002,4.69566 9.454489,3.53421 12.611571,4.7925 12.696585,5.06034 0.06228,0.19611 0.172863,0.3555 0.245844,0.35433 0.07299,0 3.225455,-5.66613 7.005509,-12.58857 l 6.872821,-12.5864 12.298921,-4.31307 12.298935,-4.31316 11.05479,3.7827 c 6.08014,2.08044 11.68855,4.00923 12.46315,4.28616 l 1.40836,0.50355 0.0495,19.71737 0.0495,19.71747 7.13205,-7.42248 7.13202,-7.42239 13.15488,-5.43519 13.15489,-5.4351 12.75819,4.65129 12.75816,4.65129 0.049,53.1674 0.049,53.16744 -11.51754,4.7261 c -6.33464,2.5993 -12.06935,4.9721 -12.74378,5.2729 l -1.22624,0.5467 -14.81035,-5.0955 -14.81035,-5.0954 -4.08204,-5.41573 -4.08204,-5.4157 -0.0496,18.19003 c -0.0489,17.9328 -0.0551,18.193 -0.43626,18.397 -0.5188,0.2777 -25.67618,10.7223 -26.04741,10.8141 -0.16037,0.04 -6.18676,-2.3753 -13.392015,-5.3667 z M 99.66016,934.27667 c -0.15208,-0.14643 -27.341157,-11.25089 -27.54759,-11.25089 -0.06453,0 -0.02655,0.16983 0.08451,0.37728 0.137511,0.25695 0.186192,8.86049 0.152631,26.97065 -0.04023,21.69346 -0.09595,26.59336 -0.302508,26.59336 -0.140436,0 -8.089343,-15.23761 -17.846781,-34.21141 -9.676456,-18.8162 -17.697434,-34.31033 -17.824388,-34.43129 -0.165357,-0.15759 -18.418434,-7.66836 -25.549564,-10.51308 -0.194562,-0.0774 -0.233514,10.46637 -0.194382,52.61354 l 0.04896,52.71077 12.309081,5.042 c 6.769997,2.773 12.34636,5.0419 12.391918,5.0419 0.04554,0 0.0828,-12.0129 0.0828,-26.69533 0,-14.6823 0.05778,-26.75293 0.128358,-26.82358 0.181215,-0.18117 0.697356,0.60588 0.551781,0.8415 -0.06597,0.10665 -0.03681,0.19404 0.06489,0.19404 0.101628,0 0.240561,0.22221 0.308745,0.49392 0.06813,0.27162 0.207864,0.44199 0.310419,0.37863 0.107649,-0.0666 0.132363,0.0261 0.0585,0.21834 -0.09372,0.24417 -0.05904,0.29088 0.129447,0.17442 0.179406,-0.11088 0.211338,-0.0846 0.105318,0.0873 -0.08874,0.14355 -0.0405,0.31518 0.115758,0.41175 0.147339,0.091 0.272177,0.23427 0.277433,0.31842 0.02673,0.42732 0.330489,1.0206 0.476406,0.93042 0.13464,-0.0828 0.386865,0.3708 0.485955,0.87471 0.101808,0.51777 0.353574,0.95653 0.497727,0.86743 0.0982,-0.06 0.120717,0.04 0.05013,0.2235 -0.08631,0.2248 -0.05454,0.2881 0.09719,0.1944 0.151758,-0.094 0.183447,-0.031 0.09719,0.1944 -0.09432,0.2457 -0.05949,0.2911 0.132453,0.1725 0.189945,-0.1174 0.227088,-0.074 0.137214,0.1602 -0.07434,0.1936 -0.03312,0.3027 0.10368,0.2748 0.124794,-0.025 0.239535,0.085 0.25497,0.2454 0.06966,0.7234 0.09861,0.7934 0.281664,0.6803 0.181872,-0.1124 0.282906,0.1633 0.207144,0.5653 -0.01836,0.097 0.08064,0.247 0.21996,0.3331 0.139275,0.086 0.264168,0.2472 0.277533,0.358 0.01332,0.1108 0.03528,0.2941 0.0486,0.4073 0.01332,0.1133 0.110763,0.1524 0.21645,0.087 0.114138,-0.07 0.140193,0.016 0.06417,0.2148 -0.08037,0.2094 -0.05175,0.2864 0.07686,0.2069 0.192474,-0.1189 0.450846,0.3641 0.736893,1.3778 0.06831,0.2421 0.205389,0.39 0.304605,0.3287 0.179883,-0.1112 0.258749,0.1622 0.190422,0.6599 -0.02232,0.1625 0.05553,0.2059 0.20438,0.1139 0.167292,-0.1034 0.202932,-0.051 0.117189,0.1725 -0.07596,0.198 -0.03276,0.3034 0.112752,0.2749 0.132795,-0.026 0.209052,0.111 0.174393,0.3134 -0.03384,0.1978 0.01953,0.3096 0.118647,0.2483 0.09914,-0.061 0.345537,0.2551 0.54756,0.7031 0.356427,0.7904 0.388557,0.8871 0.44019,1.3246 0.01332,0.1132 0.09898,0.1596 0.19026,0.1033 0.209583,-0.1296 0.656091,0.8222 0.502398,1.0709 -0.06273,0.1015 0.0018,0.1606 0.143325,0.1312 0.155664,-0.032 0.233073,0.089 0.195831,0.3063 -0.03384,0.1978 0.01728,0.3108 0.113751,0.2513 0.217638,-0.1346 0.872091,1.1926 0.71415,1.4482 -0.06318,0.1022 9e-4,0.1618 0.14256,0.1324 0.14238,-0.03 0.24552,0.098 0.230778,0.2846 -0.01467,0.186 0.03816,0.2981 0.117369,0.2491 0.206568,-0.1277 0.619866,0.859 0.464868,1.1097 -0.07506,0.1214 -0.03924,0.154 0.08496,0.077 0.270567,-0.1672 0.688211,0.5815 0.503567,0.9027 -0.07551,0.1314 -0.06381,0.1722 0.02601,0.091 0.208008,-0.189 1.673217,2.395 1.550286,2.734 -0.05049,0.1392 -0.0097,0.2023 0.09064,0.1403 0.24246,-0.1499 0.646245,0.6229 0.472437,0.9041 -0.0765,0.1238 -0.05022,0.1673 0.05976,0.099 0.243432,-0.1505 0.694548,0.7901 0.516852,1.0776 -0.07506,0.1214 -0.03924,0.154 0.08496,0.077 0.265788,-0.1643 0.691614,0.5816 0.504702,0.8841 -0.0765,0.1238 -0.05022,0.1673 0.05976,0.099 0.243441,-0.1505 0.694548,0.79 0.516861,1.0776 -0.07506,0.1214 -0.03924,0.154 0.08496,0.077 0.265788,-0.1644 0.691614,0.5816 0.504693,0.8841 -0.07866,0.1273 -0.05004,0.1672 0.06786,0.094 0.244953,-0.1515 0.493847,0.4033 0.312579,0.6966 -0.07326,0.1187 -0.03618,0.1503 0.08685,0.074 0.265788,-0.1642 0.691623,0.5818 0.504702,0.8842 -0.0765,0.1238 -0.05022,0.1673 0.05976,0.099 0.243432,-0.1505 0.694539,0.7901 0.516852,1.0775 -0.07506,0.1215 -0.03924,0.154 0.08496,0.077 0.265788,-0.1642 0.691614,0.5818 0.504693,0.8842 -0.07866,0.1273 -0.04995,0.1671 0.06786,0.094 0.244953,-0.1514 0.493857,0.4035 0.312579,0.6968 -0.07362,0.1191 -0.03609,0.1501 0.08829,0.073 0.267309,-0.1652 0.886374,0.9684 0.696564,1.2756 -0.07767,0.1256 -0.04842,0.165 0.06885,0.093 0.244944,-0.1514 0.493848,0.4035 0.312579,0.6967 -0.07326,0.1186 -0.03618,0.1503 0.08685,0.074 0.265788,-0.1643 0.691614,0.5817 0.504702,0.8841 -0.07866,0.1273 -0.05004,0.1672 0.06786,0.094 0.244944,-0.1514 0.493848,0.4034 0.31257,0.6967 -0.07362,0.1191 -0.03618,0.1502 0.08829,0.073 0.267318,-0.1651 0.886382,0.9684 0.696563,1.2756 -0.07767,0.1256 -0.04833,0.1651 0.06885,0.093 0.244944,-0.1514 0.493848,0.4035 0.312579,0.69683 -0.07362,0.1191 -0.03618,0.1502 0.08829,0.073 0.267309,-0.1652 0.886374,0.9684 0.696564,1.2756 -0.08865,0.1434 -0.04662,0.1639 0.122274,0.059 0.188496,-0.1165 0.223173,-0.069 0.129456,0.1744 -0.07038,0.1835 -0.0495,0.285 0.04653,0.2257 0.09598,-0.059 3.52827,6.0073 7.627301,13.4814 l 7.452781,13.5892 12.829273,5.3199 12.829268,5.3199 0.049,-52.67253 c 0.0269,-28.96985 -0.0167,-52.73579 -0.0972,-52.81319 z m 20.21547,97.36003 6.17166,-2.5547 0,-32.34053 c 0,-29.8926 0.0242,-32.33586 0.31933,-32.27772 0.17564,0.0342 8.75015,10.95312 19.05446,24.26342 10.30432,13.31043 18.84696,24.27693 18.98365,24.37003 0.16325,0.1113 4.41366,-1.5467 12.38697,-4.8318 6.67616,-2.7507 12.2478,-5.0449 12.38143,-5.0983 0.19356,-0.077 0.24299,-10.80993 0.24299,-52.75406 0,-28.96136 -0.0219,-52.65575 -0.0486,-52.65422 -0.0267,0 -5.8655,2.39841 -12.97506,5.32629 l -12.92646,5.3235 -0.0972,32.61077 c -0.0722,24.20919 -0.15442,32.62989 -0.31933,32.68479 -0.12219,0.04 -8.11417,-11.12934 -17.76,-24.82248 -9.6458,-13.69314 -17.68075,-25.06247 -17.85544,-25.26515 -0.3075,-0.35694 -0.74603,-0.19314 -13.73007,5.12774 l -13.41242,5.49639 -0.049,52.7817 -0.049,52.78173 6.75516,-2.8064 c 3.71533,-1.5435 9.5324,-3.9559 12.92682,-5.361 z m 25.28727,-42.63523 -18.62965,-24.05352 -0.0499,13.37592 -0.0499,13.376 4.32636,5.796 c 3.81396,5.10953 4.41846,5.83133 5.10389,6.09513 1.80236,0.6934 27.8025,9.5825 27.86284,9.5259 0.0364,-0.034 -8.31725,-10.8861 -18.56357,-24.11543 z m -97.451918,19.16723 c 6.25427,-2.5874 11.397112,-4.7293 11.42854,-4.7597 0.05004,-0.049 -23.021077,-42.25302 -23.212003,-42.46236 -0.04068,-0.0441 -0.07389,11.66423 -0.07389,26.01953 0,20.80253 0.04932,26.08083 0.242973,26.00363 0.133641,-0.053 5.360111,-2.2138 11.61438,-4.8011 z m 24.492245,-57.98624 0,-26.08127 -0.806661,-1.69749 c -0.446976,-0.9405 -0.893736,-1.64358 -1.001943,-1.57671 -0.107415,0.0666 -0.136053,0.0252 -0.06363,-0.0923 0.174186,-0.28179 -1.648404,-3.93858 -1.888974,-3.7899 -0.102564,0.0639 -0.127296,0.0198 -0.05499,-0.0976 0.15507,-0.25092 -1.43963,-3.55887 -1.652282,-3.42738 -0.07983,0.0495 -0.13698,-0.0657 -0.127044,-0.2547 0.02808,-0.53586 -3.762882,-8.22258 -3.986955,-8.08407 -0.108216,0.0666 -0.137663,0.0261 -0.06543,-0.0908 0.160002,-0.25893 -1.052324,-2.78064 -1.271627,-2.6451 -0.08568,0.0531 -0.09824,-0.054 -0.02781,-0.23724 0.08622,-0.22482 0.05454,-0.28818 -0.09719,-0.1944 -0.151758,0.0938 -0.183447,0.0306 -0.09719,-0.1944 0.08622,-0.22473 0.05454,-0.28818 -0.09719,-0.1944 -0.151758,0.0938 -0.183456,0.0306 -0.09719,-0.19431 0.08622,-0.22482 0.05454,-0.28818 -0.09719,-0.1944 -0.1422,0.0882 -0.186471,0.0387 -0.120123,-0.13464 0.05778,-0.15066 -0.0756,-0.48321 -0.296442,-0.73908 -0.220833,-0.25587 -0.512109,-0.62325 -0.647271,-0.81639 -0.229095,-0.32733 -1.003014,-0.0459 -11.417353,4.14684 -6.144379,2.47392 -11.237262,4.56075 -11.317524,4.63743 -0.08028,0.0765 7.253845,14.52429 16.298006,32.1056 9.044162,17.58141 16.919268,32.91002 17.500236,34.06372 0.580959,1.1537 1.141236,2.0452 1.245051,1.981 0.120564,-0.075 0.188748,-9.5389 0.188748,-26.198 z m 90.775293,-9.32202 -0.002,-32.31611 -12.09881,-4.6116 c -6.65436,-2.53629 -12.19798,-4.63563 -12.31918,-4.66515 -0.12118,-0.0297 -2.95281,2.78919 -6.29249,6.26382 -3.33967,3.47454 -7.69769,7.95447 -9.6845,9.95535 l -3.61235,3.63789 0.67167,0.27531 c 6.47326,2.65338 7.5349,3.12912 7.96101,3.56742 0.26727,0.27495 0.35475,0.43785 0.19438,0.36198 -0.18047,-0.0855 -0.16194,-0.0315 0.0486,0.14085 0.18709,0.15336 0.34016,0.36918 0.34016,0.47961 0,0.11034 0.14373,0.25587 0.31941,0.32328 0.17567,0.0675 0.26685,0.17505 0.20265,0.23931 -0.0642,0.0639 0.0763,0.28746 0.31233,0.49617 0.23603,0.20871 0.29789,0.32148 0.13753,0.25056 -0.16037,-0.0711 -0.0729,0.0513 0.19438,0.27252 0.26728,0.22068 0.42435,0.4032 0.34902,0.40554 -0.0753,0 0.0778,0.21906 0.34017,0.4815 0.26241,0.26244 0.47711,0.60291 0.47711,0.75671 0,0.15381 0.14373,0.3348 0.31941,0.40221 0.17567,0.0675 0.26685,0.17505 0.20265,0.23931 -0.0642,0.0639 0.0763,0.28746 0.31233,0.49617 0.23602,0.20871 0.2979,0.32256 0.13752,0.25299 -0.19044,-0.0828 -0.17358,-0.0297 0.0486,0.15246 0.1871,0.15336 0.34017,0.36918 0.34017,0.47952 0,0.11043 0.14373,0.25596 0.31941,0.32337 0.17566,0.0675 0.26685,0.17505 0.20264,0.23931 -0.0642,0.0639 0.0763,0.28746 0.31234,0.49617 0.23602,0.20871 0.29789,0.32148 0.13753,0.25056 -0.16037,-0.0711 -0.0729,0.0513 0.19438,0.27243 0.26727,0.22077 0.41067,0.40329 0.31864,0.40563 -0.092,0 0.0391,0.18594 0.29157,0.40797 0.2524,0.22194 0.32769,0.34668 0.16732,0.27711 -0.19043,-0.0828 -0.17359,-0.0297 0.0486,0.15246 0.18709,0.15336 0.34017,0.36909 0.34017,0.47952 0,0.11043 0.14372,0.25596 0.31941,0.32337 0.17566,0.0675 0.26684,0.17505 0.20264,0.23931 -0.0642,0.0639 0.0763,0.28746 0.31233,0.49617 0.23603,0.20871 0.29789,0.32148 0.13753,0.25056 -0.16036,-0.0711 -0.0729,0.0513 0.19438,0.27243 0.26728,0.22077 0.42434,0.40329 0.34902,0.40563 -0.0753,0 0.0778,0.21906 0.34017,0.4815 0.26242,0.26235 0.47711,0.60291 0.47711,0.75672 0,0.15381 0.14372,0.33471 0.31941,0.40212 0.17566,0.0675 0.26685,0.17514 0.20265,0.2394 -0.0642,0.0639 0.0763,0.28746 0.31233,0.49617 0.23602,0.20862 0.29789,0.32256 0.13752,0.25299 -0.19043,-0.0828 -0.17358,-0.0297 0.0486,0.15246 0.18709,0.15327 0.34018,0.36909 0.34018,0.47952 0,0.11043 0.14372,0.25587 0.31941,0.32328 0.17566,0.0675 0.26684,0.17514 0.20264,0.2394 -0.0642,0.0639 0.0763,0.28746 0.31233,0.49617 0.23602,0.20871 0.29789,0.32139 0.13753,0.25056 -0.16037,-0.0711 -0.0729,0.0513 0.19438,0.27243 0.26728,0.22077 0.42434,0.40329 0.34902,0.40563 -0.0753,0 0.0778,0.21906 0.34016,0.48141 0.26242,0.26244 0.47712,0.603 0.47712,0.75681 0,0.15372 0.14372,0.33471 0.31941,0.40212 0.17566,0.0675 0.26685,0.17514 0.20264,0.23931 -0.0642,0.0639 0.0763,0.28755 0.31234,0.49626 0.23601,0.20862 0.29789,0.32139 0.13752,0.25056 -0.16036,-0.0711 -0.0729,0.0513 0.19438,0.27243 0.26728,0.22068 0.39849,0.4059 0.29158,0.41157 -0.10691,0.009 -0.0394,0.10035 0.14989,0.2106 0.18932,0.11025 0.29918,0.27333 0.24409,0.36252 -0.0551,0.0891 0.0305,0.21222 0.19029,0.27351 0.15974,0.0612 0.29045,0.23607 0.29045,0.38835 0,0.15228 0.14373,0.33201 0.31941,0.39942 0.17566,0.0675 0.26685,0.17514 0.20264,0.23931 -0.0642,0.0639 0.0763,0.28755 0.31236,0.49617 0.236,0.20871 0.29787,0.32256 0.13751,0.25308 -0.19044,-0.0828 -0.17359,-0.0297 0.0486,0.15237 0.18709,0.15336 0.34017,0.36918 0.34017,0.47961 0,0.11043 0.14372,0.25587 0.31941,0.32328 0.17566,0.0675 0.26685,0.17514 0.20265,0.23931 -0.0642,0.0639 0.0763,0.28755 0.31235,0.49617 0.236,0.20871 0.29787,0.32148 0.1375,0.25065 -0.16036,-0.0711 -0.0729,0.0513 0.19438,0.27243 0.26729,0.22068 0.42434,0.4032 0.34902,0.40563 -0.0753,0 0.0778,0.21897 0.34017,0.48141 0.26242,0.26244 0.47711,0.603 0.47711,0.75672 0,0.15381 0.14373,0.3348 0.31941,0.40221 0.17567,0.0675 0.26685,0.17505 0.20265,0.23931 -0.0642,0.0639 0.0763,0.28746 0.31235,0.49617 0.236,0.20871 0.29788,0.32256 0.13751,0.25308 -0.19044,-0.0828 -0.17359,-0.0297 0.0486,0.15237 0.1871,0.15336 0.34018,0.36918 0.34018,0.47961 0,0.11043 0.13676,0.25317 0.30389,0.31734 0.16715,0.0639 0.25513,0.19557 0.19552,0.29196 -0.0597,0.0965 0.0223,0.22554 0.18205,0.28692 0.15975,0.0612 0.29045,0.23598 0.29045,0.38826 0,0.15228 0.14373,0.3321 0.31941,0.39951 0.17567,0.0675 0.26685,0.17505 0.20264,0.23931 -0.0642,0.0639 0.0763,0.28746 0.31235,0.49617 0.23601,0.20871 0.29788,0.32256 0.13752,0.25299 -0.19044,-0.0828 -0.17359,-0.0297 0.0486,0.15246 0.1871,0.15336 0.34017,0.36918 0.34017,0.47952 0,0.11043 0.14373,0.25596 0.31941,0.32337 0.17566,0.0675 0.26685,0.17505 0.20264,0.23931 -0.0642,0.0639 0.0763,0.28746 0.31236,0.49617 0.23599,0.20871 0.29787,0.32148 0.13751,0.25056 -0.16037,-0.0711 -0.0729,0.0522 0.19438,0.27243 0.26727,0.22077 0.42433,0.40329 0.34901,0.40563 -0.0753,0 0.0778,0.21906 0.34017,0.4815 0.26242,0.26235 0.47711,0.60291 0.47711,0.75672 0,0.15381 0.14373,0.33471 0.31941,0.40221 0.17567,0.0675 0.26685,0.17505 0.20264,0.23931 -0.0642,0.0639 0.0763,0.28746 0.31236,0.49617 0.23601,0.20871 0.29787,0.32256 0.13751,0.25299 -0.19044,-0.0828 -0.17358,-0.0297 0.0486,0.15246 0.1871,0.15336 0.34017,0.36909 0.34017,0.47952 0,0.11043 0.14373,0.25596 0.31941,0.32337 0.17566,0.0675 0.26685,0.17505 0.20265,0.23931 -0.0642,0.0639 0.0763,0.28746 0.31235,0.49617 0.236,0.20871 0.29787,0.32148 0.13751,0.25056 -0.16037,-0.0711 -0.0729,0.0522 0.19438,0.27243 0.26728,0.22077 0.41067,0.40329 0.31866,0.40563 -0.0921,0 0.0392,0.18594 0.29157,0.40797 0.25239,0.22194 0.32767,0.34668 0.1673,0.27711 -0.19044,-0.0828 -0.17358,-0.0297 0.0486,0.15246 0.18709,0.15327 0.34016,0.36909 0.34016,0.47952 0,0.11043 0.14373,0.25587 0.31941,0.32328 0.17568,0.0675 0.26685,0.17514 0.20265,0.2394 -0.0642,0.0639 0.0763,0.28746 0.31235,0.49617 0.23601,0.20862 0.29788,0.32139 0.13751,0.25056 -0.16037,-0.0711 -0.0729,0.0513 0.19439,0.27243 0.26727,0.22077 0.42434,0.40324 0.34901,0.40564 -0.0753,0 0.0778,0.219 0.34017,0.4814 0.26242,0.2624 0.47712,0.603 0.47712,0.7568 0,0.1537 0.14372,0.3347 0.31941,0.4021 0.17566,0.067 0.26685,0.1752 0.20264,0.2393 -0.0642,0.064 0.0763,0.2876 0.31235,0.4962 0.236,0.2087 0.29788,0.3226 0.13751,0.2531 -0.19044,-0.083 -0.17359,-0.03 0.0486,0.1524 0.18709,0.1533 0.34016,0.3691 0.34016,0.4796 0,0.1104 0.14373,0.2558 0.31941,0.3232 0.17567,0.067 0.26685,0.1752 0.20264,0.2394 -0.0642,0.064 0.0763,0.2875 0.31236,0.4962 0.236,0.2086 0.29787,0.3214 0.13751,0.2506 -0.16037,-0.071 -0.0729,0.051 0.19438,0.2724 0.26727,0.2207 0.42434,0.4032 0.34901,0.4056 -0.0753,0 0.0778,0.2191 0.34017,0.4814 0.26243,0.2625 0.47712,0.603 0.47712,0.7568 0,0.1538 0.14372,0.3348 0.31941,0.4022 0.17566,0.067 0.26838,0.1736 0.20607,0.2359 -0.0934,0.093 0.23164,0.6223 0.39784,0.6476 0.0267,0 0.0479,-14.53481 0.0471,-32.30873 z m -127.0277,19.48689 c 0.06606,-0.10692 0.02745,-0.1944 -0.08568,-0.1944 -0.11322,0 -0.205848,0.0873 -0.205848,0.1944 0,0.10692 0.03861,0.1944 0.08568,0.1944 0.04716,0 0.139779,-0.0873 0.205857,-0.1944 z m 77.89894,-32.18067 c 7.02937,-2.87684 12.78051,-5.27597 12.78031,-5.3315 -2e-4,-0.0558 -1.90274,-0.87768 -4.22783,-1.827 -2.32509,-0.94932 -8.37824,-3.4317 -13.45142,-5.51628 l -9.22395,-3.79017 -2.43902,0.99054 c -3.04088,1.23489 -18.01895,7.2477 -21.682921,8.70435 -1.496745,0.59508 -2.780118,1.13949 -2.851929,1.20978 -0.07182,0.0702 6.007517,2.62989 13.509619,5.6879 12.752271,5.19813 13.678131,5.54517 14.223321,5.33151 0.32073,-0.12573 6.33445,-2.58237 13.36382,-5.45913 z m -38.629266,-7.0847 c 1.760499,-0.69489 3.201371,-1.33425 3.201947,-1.42074 5.85e-4,-0.0864 0.102033,-0.0949 0.225459,-0.0189 0.137583,0.0855 0.171711,0.0531 0.0882,-0.0819 -0.173808,-0.28125 0.229977,-1.05399 0.472437,-0.90414 0.103032,0.0639 0.126711,-0.0324 0.05445,-0.22077 -0.09371,-0.24426 -0.05904,-0.29097 0.129456,-0.17451 0.169623,0.10485 0.210978,0.0837 0.12123,-0.0612 -0.186912,-0.30249 0.238914,-1.0485 0.504702,-0.88425 0.128124,0.0792 0.15975,0.0441 0.07848,-0.0873 -0.173808,-0.28125 0.229977,-1.05399 0.472437,-0.90414 0.103032,0.0639 0.126711,-0.0324 0.05445,-0.22086 -0.09372,-0.24426 -0.05904,-0.29097 0.129456,-0.17442 0.169623,0.10476 0.210978,0.0837 0.12123,-0.0612 -0.173808,-0.28125 0.229977,-1.05399 0.472446,-0.90414 0.103032,0.0639 0.126702,-0.0324 0.05445,-0.22086 -0.08055,-0.20988 -0.05184,-0.28647 0.07749,-0.20655 0.116847,0.072 0.193968,-0.0189 0.178821,-0.21105 -0.01467,-0.18603 0.07956,-0.31725 0.209331,-0.29187 0.145494,0.0288 0.18873,-0.0765 0.112752,-0.27486 -0.08928,-0.23265 -0.05229,-0.27729 0.134217,-0.162 0.169623,0.10485 0.210987,0.0837 0.121239,-0.0612 -0.173808,-0.28125 0.229977,-1.05399 0.472436,-0.90414 0.103032,0.0639 0.126711,-0.0324 0.05436,-0.22077 -0.08055,-0.20997 -0.05184,-0.28647 0.07749,-0.20664 0.116847,0.072 0.193977,-0.0189 0.178821,-0.21105 -0.01467,-0.18594 0.07956,-0.31725 0.209331,-0.29178 0.145503,0.0288 0.188739,-0.0765 0.112761,-0.27495 -0.08928,-0.23265 -0.05229,-0.27729 0.134217,-0.162 0.169623,0.10485 0.210987,0.0837 0.121239,-0.0612 -0.173808,-0.28116 0.229977,-1.05399 0.472437,-0.90414 0.103032,0.0639 0.126711,-0.0324 0.05445,-0.22077 -0.08055,-0.20988 -0.05184,-0.28647 0.07749,-0.20655 0.116847,0.072 0.193977,-0.0189 0.178821,-0.21114 -0.01476,-0.18693 0.08838,-0.31419 0.230778,-0.28467 0.141588,0.0297 0.206901,-0.0288 0.145152,-0.12825 -0.148212,-0.23976 0.08118,-0.82422 0.276183,-0.70362 0.08361,0.0513 0.140076,-0.0585 0.125415,-0.24417 -0.01467,-0.18594 0.07956,-0.31725 0.20934,-0.29178 0.145494,0.0288 0.18873,-0.0765 0.112752,-0.27486 -0.07659,-0.19962 -0.04554,-0.27306 0.08226,-0.19413 0.116847,0.072 0.193977,-0.0189 0.178821,-0.21114 -0.01476,-0.18693 0.08838,-0.31419 0.230778,-0.28458 0.141579,0.0297 0.206901,-0.0279 0.145152,-0.12825 -0.148212,-0.23985 0.08118,-0.82422 0.276183,-0.70371 0.08361,0.0513 0.140076,-0.0585 0.125415,-0.24408 -0.01467,-0.18594 0.07956,-0.31725 0.209331,-0.29187 0.145503,0.0288 0.188739,-0.0765 0.112761,-0.27486 -0.07659,-0.19962 -0.04554,-0.27306 0.08226,-0.19413 0.116856,0.072 0.193977,-0.0189 0.178821,-0.21105 -0.01476,-0.18702 0.08838,-0.31419 0.230778,-0.28467 0.141588,0.0297 0.206909,-0.0288 0.145161,-0.12825 -0.148212,-0.23985 0.08118,-0.82422 0.276173,-0.70371 0.08361,0.0522 0.140076,-0.0585 0.125424,-0.24408 -0.01467,-0.18594 0.07956,-0.31725 0.209331,-0.29178 0.145503,0.0288 0.188739,-0.0765 0.112752,-0.27486 -0.08928,-0.23274 -0.05238,-0.27738 0.134226,-0.16209 0.169623,0.10485 0.210978,0.0837 0.12123,-0.0612 -0.186912,-0.30249 0.238914,-1.0485 0.504702,-0.88425 0.137655,0.0855 0.158994,0.0423 0.05949,-0.11844 -0.09926,-0.16056 0.01251,-0.38763 0.31014,-0.63 0.255924,-0.20844 0.355311,-0.32211 0.22086,-0.25254 -0.192996,0.0998 -0.197235,0.0225 -0.02016,-0.36585 0.123354,-0.27072 0.289089,-0.45216 0.368298,-0.4032 0.0792,0.0486 0.132021,-0.063 0.11736,-0.24903 -0.01467,-0.18594 0.07956,-0.31725 0.209326,-0.29187 0.13586,0.027 0.18916,-0.0756 0.12563,-0.24129 -0.0625,-0.16272 0.0245,-0.33939 0.20026,-0.4068 0.17083,-0.0657 0.25388,-0.21105 0.18452,-0.32328 -0.0761,-0.12312 -0.0319,-0.14589 0.11131,-0.0576 0.14547,0.09 0.22346,0.045 0.20137,-0.11574 -0.0674,-0.49113 0.01,-0.77166 0.18248,-0.66483 0.0948,0.0585 0.16044,-0.0459 0.14578,-0.23148 -0.0146,-0.18594 0.0796,-0.31725 0.20933,-0.29178 0.14551,0.0288 0.18875,-0.0765 0.11276,-0.27495 -0.0858,-0.22338 -0.0501,-0.27585 0.1172,-0.17253 0.16343,0.10107 0.22068,0.0333 0.17881,-0.21105 -0.0373,-0.21753 0.0401,-0.33858 0.19584,-0.30627 0.14157,0.0297 0.2069,-0.0288 0.14514,-0.12825 -0.14821,-0.23985 0.0812,-0.82422 0.27619,-0.70371 0.0836,0.0522 0.14006,-0.0585 0.12541,-0.24408 -0.0146,-0.18594 0.0796,-0.31725 0.20933,-0.29178 0.14551,0.0288 0.18875,-0.0765 0.11276,-0.27486 -0.0899,-0.23418 -0.0527,-0.27756 0.13722,-0.1602 0.19191,0.11862 0.22676,0.0729 0.13245,-0.17262 -0.0704,-0.18342 -0.0522,-0.28665 0.0405,-0.22941 0.0927,0.0576 0.22185,-0.16263 0.28706,-0.4887 0.0659,-0.32922 0.20605,-0.53883 0.31526,-0.47133 0.18003,0.11124 0.2835,-0.15246 0.21486,-0.54765 -0.0154,-0.0882 0.0767,-0.0956 0.2044,-0.0171 0.15939,0.0986 0.19242,0.0396 0.10527,-0.18729 -0.0787,-0.20493 -0.0173,-0.37296 0.16136,-0.44145 0.15856,-0.0612 0.28829,-0.23247 0.28829,-0.38142 0,-0.14895 0.10205,-0.27081 0.22678,-0.27081 0.12474,0 0.17264,-0.054 0.10646,-0.12033 -0.0662,-0.0666 0.007,-0.24813 0.16376,-0.40446 0.15627,-0.15624 0.22607,-0.378 0.1551,-0.49284 -0.0824,-0.13329 -0.036,-0.1512 0.12844,-0.0495 0.18807,0.11619 0.22323,0.0702 0.1305,-0.17172 -0.0787,-0.20493 -0.0173,-0.37296 0.16136,-0.44145 0.15855,-0.0612 0.28828,-0.23247 0.28828,-0.38142 0,-0.14895 0.0926,-0.27072 0.20587,-0.27072 0.11321,0 0.1564,-0.0801 0.096,-0.17784 -0.0604,-0.0977 -0.0171,-0.20871 0.0963,-0.24651 0.1779,-0.0594 0.31004,-0.42057 0.3645,-0.99648 0.008,-0.0864 0.0932,-0.10881 0.18891,-0.0495 0.0957,0.0594 0.2259,-0.0279 0.28934,-0.19296 0.076,-0.19827 0.0333,-0.2583 -0.12542,-0.1764 -0.13242,0.0684 -0.022,-0.0567 0.24519,-0.2772 0.26728,-0.22068 0.41412,-0.40329 0.32629,-0.40563 -0.0878,0 -0.0222,-0.14175 0.14579,-0.30978 0.16801,-0.16803 0.30546,-0.43038 0.30546,-0.58311 0,-0.15273 0.0847,-0.27774 0.18829,-0.27774 0.10355,0 0.13242,-0.14553 0.0642,-0.32346 -0.0834,-0.21744 -0.0496,-0.27738 0.10331,-0.18288 0.2397,0.14814 0.25847,0.10764 0.29913,-0.6462 0.0243,-0.45108 -0.52309,-0.67455 -12.220658,-4.98861 -6.735365,-2.48399 -12.304258,-4.45832 -12.375304,-4.38731 -0.198477,0.19818 -13.768683,25.07318 -13.772895,25.24643 -0.0081,0.33156 11.184244,22.82184 11.23468,22.57551 0.0297,-0.1449 1.494368,-0.83205 3.254876,-1.52703 z m 16.528166,-6.67161 7.97967,-3.21939 9.32043,3.86109 9.32041,3.86118 2.47837,-2.55312 2.47839,-2.55303 0,-19.59129 c 0,-10.77525 -0.0219,-19.58993 -0.0486,-19.58822 -0.0267,0 -5.29226,2.08161 -11.70118,4.62203 l -11.65257,4.61898 -0.56861,0.96642 c -0.3127,0.53163 -4.80882,8.27046 -9.991339,17.19747 -5.182523,8.92701 -9.594898,16.51284 -9.805282,16.85745 l -0.382518,0.6264 2.296584,-0.94329 c 1.263122,-0.51885 5.88743,-2.39211 10.276235,-4.16268 z m 29.53625,2.20086 c 0.41759,-0.42768 0.7155,-0.77751 0.66204,-0.77751 -0.0535,0 -0.43884,0.34983 -0.85643,0.77751 -0.41757,0.42759 -0.7155,0.77751 -0.66205,0.77751 0.0535,0 0.43886,-0.34992 0.85644,-0.77751 z m 54.59274,-13.82904 c 7.07197,-2.90187 12.92554,-5.33538 13.00793,-5.40783 0.0824,-0.0729 -5.39457,-2.15208 -12.17101,-4.6215 l -12.3208,-4.48974 -12.77314,5.27652 c -9.42423,3.89313 -12.68014,5.31792 -12.41842,5.4342 0.724,0.32175 23.49248,9.05004 23.65179,9.06696 0.091,0.01 5.95168,-2.35674 13.02365,-5.25861 z m -128.847004,0.93717 c 5.452442,-2.19978 10.425175,-4.20939 11.050521,-4.4658 l 1.136997,-0.4662 -12.332652,-4.61889 -12.332644,-4.61889 -11.741533,3.82536 c -6.45784,2.10393 -11.822145,3.84606 -11.920686,3.87135 -0.09853,0.0252 1.257291,0.63369 3.012938,1.35198 18.795461,7.6896 22.670744,9.24264 22.921952,9.1863 0.160371,-0.036 4.752665,-1.86534 10.205107,-4.06521 z m 64.260224,-24.867 c 6.2848,-2.4857 11.36696,-4.57901 11.29364,-4.65173 -0.17543,-0.17424 -23.41583,-8.12736 -23.76972,-8.13438 -0.14997,0 -5.58625,1.85589 -12.080616,4.13064 -9.000701,3.1527 -11.704147,4.17123 -11.371399,4.284 0.240093,0.081 5.728616,2.10771 12.196707,4.50305 6.468088,2.39535 11.882618,4.36248 12.032298,4.37148 0.14967,0.009 5.41426,-2.01744 11.69909,-4.50306 z"
       id="path5762"
       inkscape:connector-curvature="0" />
  </g>
</svg>
