<?xml version="1.0" encoding="UTF-8" standalone="no"?>
<!-- Created with Inkscape (http://www.inkscape.org/) -->

<svg
   xmlns:dc="http://purl.org/dc/elements/1.1/"
   xmlns:cc="http://creativecommons.org/ns#"
   xmlns:rdf="http://www.w3.org/1999/02/22-rdf-syntax-ns#"
   xmlns:svg="http://www.w3.org/2000/svg"
   xmlns="http://www.w3.org/2000/svg"
   xmlns:sodipodi="http://sodipodi.sourceforge.net/DTD/sodipodi-0.dtd"
   xmlns:inkscape="http://www.inkscape.org/namespaces/inkscape"
   width="200"
   height="200"
   viewBox="0 0 200 200"
   id="svg4267"
   version="1.1"
   inkscape:version="0.91 r13725"
   sodipodi:docname="OSU.svg">
  <defs
     id="defs4269" />
  <sodipodi:namedview
     id="base"
     pagecolor="#ffffff"
     bordercolor="#666666"
     borderopacity="1.0"
     inkscape:pageopacity="0.0"
     inkscape:pageshadow="2"
     inkscape:zoom="2.8"
     inkscape:cx="26.137394"
     inkscape:cy="92.744704"
     inkscape:document-units="px"
     inkscape:current-layer="layer1"
     showgrid="false"
     units="px"
     inkscape:window-width="1858"
     inkscape:window-height="1057"
     inkscape:window-x="1974"
     inkscape:window-y="-8"
     inkscape:window-maximized="1" />
  <metadata
     id="metadata4272">
    <rdf:RDF>
      <cc:Work
         rdf:about="">
        <dc:format>image/svg+xml</dc:format>
        <dc:type
           rdf:resource="http://purl.org/dc/dcmitype/StillImage" />
        <dc:title />
      </cc:Work>
    </rdf:RDF>
  </metadata>
  <g
     inkscape:label="Layer 1"
     inkscape:groupmode="layer"
     id="layer1"
     transform="translate(0,-852.36216)">
    <path
       style="fill:#ffffff"
       d="m 94.558716,1042.3043 c -3.216609,-0.2488 -7.030098,-0.6994 -9.678546,-1.1434 -14.920794,-2.5019 -29.255355,-8.9223 -41.135094,-18.4242 C 26.465662,1008.9159 14.853745,989.22819 11.172412,967.51066 10.208449,961.82383 10,959.12878 10,952.35151 c 0,-6.77195 0.207486,-9.45854 1.170747,-15.15905 3.662784,-21.67605 15.304131,-41.41259 32.574329,-55.22606 13.488642,-10.78883 29.504052,-17.33075 47.156391,-19.26233 4.166028,-0.45585 14.031043,-0.45585 18.197063,0 17.65234,1.93158 33.66775,8.4735 47.15639,19.26233 17.27843,13.81995 28.95187,33.62075 32.58445,55.27043 0.9553,5.69358 1.16063,8.36748 1.16063,15.11468 0,6.7473 -0.20533,9.4212 -1.16063,15.11478 -3.63258,21.64958 -15.30602,41.45041 -32.58445,55.27041 -13.43645,10.7471 -29.50222,17.3281 -46.97798,19.2436 -2.45284,0.2689 -12.555884,0.4912 -14.718224,0.324 z m 14.272224,-9.251 c 18.41745,-2.1485 34.56633,-9.768 47.76055,-22.5344 13.51206,-13.07416 21.85856,-30.11898 24.16823,-49.35522 0.44963,-3.74481 0.44597,-13.62464 -0.006,-17.4617 -1.97703,-16.76727 -8.26046,-31.38929 -18.85497,-43.87706 -2.29543,-2.70567 -7.32407,-7.69752 -9.89391,-9.82152 -12.53332,-10.35909 -26.78619,-16.40294 -43.35185,-18.38321 -3.75658,-0.4491 -13.46689,-0.44613 -17.305057,0.009 -16.792767,1.97469 -31.543947,8.33318 -44.065458,18.9944 -2.29293,1.95228 -7.081667,6.73947 -9.034604,9.03159 -11.385783,13.36347 -18.027513,29.66381 -19.256859,47.2607 -0.259623,3.71627 -0.119448,10.78739 0.282825,14.26742 1.876059,16.22925 8.052957,30.72234 18.432225,43.248 2.074536,2.5036 7.094807,7.5503 9.749978,9.8014 13.052853,11.0664 29.075103,17.6716 46.300329,19.0874 2.89296,0.2378 12.169601,0.076 15.075031,-0.263 z M 49.949064,971.53024 c -5.392953,-0.97929 -9.105902,-3.69999 -11.448548,-8.38899 -0.709812,-1.42074 -1.392714,-3.55869 -1.765971,-5.52861 -0.414072,-2.18538 -0.416718,-6.71751 -0.0054,-8.98839 1.424718,-7.86275 6.005798,-12.78908 13.139558,-14.12972 1.495395,-0.28098 5.99751,-0.28098 7.492914,0 7.592166,1.42677 12.332727,6.84477 13.361607,15.27101 0.557577,4.56651 -0.108612,9.52767 -1.749411,13.02786 -2.245023,4.78908 -6.249546,7.79625 -11.599038,8.7102 -1.996479,0.34101 -5.622858,0.35406 -7.425864,0.027 z m 6.677838,-7.8588 c 2.495835,-1.11969 3.715479,-3.55788 4.160898,-8.31798 0.340497,-3.63897 -0.210114,-7.8506 -1.307439,-10.00079 -0.562572,-1.10241 -1.849761,-2.36817 -2.883276,-2.83536 -0.803997,-0.36342 -1.208385,-0.42048 -2.981772,-0.42048 -1.88235,0 -2.134962,0.0405 -3.061494,0.49581 -2.768481,1.35909 -4.079376,4.68351 -4.094253,10.38311 -0.01737,6.64443 1.58373,10.07244 5.180706,11.09223 1.345536,0.38151 3.663135,0.19719 4.98663,-0.39654 z m 26.632656,7.92054 c -1.517085,-0.20295 -4.9869,-1.05507 -5.961294,-1.46394 -0.450504,-0.18909 -0.669015,-0.3951 -0.669015,-0.63081 0,-1.2573 1.300761,-5.96016 1.859976,-6.72471 0.233181,-0.31878 0.308763,-0.30978 2.067867,0.2457 2.74167,0.86589 4.719906,1.15911 7.133121,1.05723 3.077163,-0.12978 4.958037,-0.93348 5.763276,-2.46276 0.426294,-0.80964 0.338274,-2.46519 -0.167742,-3.15531 -0.585648,-0.79875 -2.281536,-1.55403 -5.684733,-2.53179 -7.484967,-2.15037 -9.808614,-4.3506 -10.178388,-9.63764 -0.419022,-5.99121 3.101058,-10.25604 9.654309,-11.69712 1.929141,-0.42417 6.811497,-0.42948 9.176607,-0.01 2.52441,0.44784 5.721458,1.36683 5.841348,1.67913 0.28112,0.73233 -1.03316,5.81859 -1.72053,6.65847 -0.28124,0.34362 -0.30704,0.34101 -1.87611,-0.1908 -2.184174,-0.74025 -4.10778,-1.07667 -6.156891,-1.07667 -2.228166,0 -3.434436,0.34686 -4.334022,1.24614 -0.622359,0.62217 -0.673929,0.75168 -0.673929,1.69263 0,0.64899 0.113355,1.21194 0.31221,1.55061 0.426015,0.7254 2.191527,1.5336 5.396679,2.47022 5.173929,1.51209 7.289383,2.6793 8.709923,4.80582 1.01164,1.51443 1.46975,3.06414 1.58832,5.37282 0.18578,3.61746 -0.77708,6.17967 -3.25381,8.65845 -1.228885,1.22994 -1.737898,1.59273 -3.31567,2.36313 -1.025154,0.50049 -2.664846,1.11969 -3.643749,1.37583 -1.557495,0.40761 -2.203281,0.47295 -5.169492,0.52308 -1.864305,0.0315 -3.978522,-0.0216 -4.698261,-0.11772 z m 40.824802,0.0909 c -1.82937,-0.21402 -4.23467,-0.66978 -5.09308,-0.96507 -4.42291,-1.52118 -7.20988,-4.82841 -8.30827,-9.85941 -0.55813,-2.55645 -0.68169,-5.4072 -0.68726,-15.85718 l -0.005,-9.75798 0.40141,-0.22923 c 0.29566,-0.16884 1.50584,-0.22914 4.59387,-0.22914 3.08802,0 4.2982,0.0603 4.59387,0.22914 l 0.4014,0.22923 0.006,10.6497 c 0.004,8.16362 0.0628,10.96667 0.24851,12.00752 0.728,4.07997 2.73005,5.6952 7.07905,5.71158 2.36551,0.009 3.84691,-0.1701 4.18211,-0.50517 0.22154,-0.22149 0.25867,-2.25342 0.25867,-14.15313 l 0,-13.89464 0.49061,-0.13707 c 0.87447,-0.24453 8.46803,-0.16614 8.92014,0.092 l 0.4014,0.22923 0,17.12366 0,17.12367 -0.63666,0.26595 c -0.81617,0.34092 -4.50032,1.22175 -6.68265,1.59777 -1.61939,0.279 -8.64624,0.50616 -10.16415,0.32859 z m 28.63362,-0.46071 c -0.88309,-0.0901 -1.67244,-0.2304 -1.75411,-0.31167 -0.31739,-0.31581 -0.50661,-3.09132 -0.41414,-6.075 0.0532,-1.71657 0.15232,-3.30768 0.22026,-3.53592 0.19181,-0.64431 0.81927,-0.7749 4.17802,-0.86958 3.0756,-0.0864 5.76486,0.10989 6.10105,0.44595 0.0945,0.0945 0.261,1.25874 0.37009,2.58732 0.22634,2.7567 -0.0238,6.95493 -0.43876,7.36407 -0.51183,0.50463 -5.05847,0.72198 -8.26241,0.39483 z m -0.24682,-16.02279 c -0.52825,-0.0765 -1.02877,-0.24732 -1.11228,-0.37908 -0.0835,-0.13167 -0.1544,-1.40319 -0.1575,-2.82546 -0.003,-1.42227 -0.12176,-8.00306 -0.26366,-14.62409 -0.31117,-14.51898 -0.33529,-16.22466 -0.23082,-16.32906 0.0445,-0.0441 0.67586,-0.15822 1.40286,-0.25254 2.56468,-0.33282 8.6712,-0.12987 9.10372,0.30249 0.22311,0.22302 -0.46478,33.55793 -0.69728,33.7904 -0.44315,0.44298 -5.74138,0.65196 -8.04504,0.31734 z"
       id="path4861"
       inkscape:connector-curvature="0" />
  </g>
</svg>
