<?xml version="1.0" encoding="UTF-8" standalone="no"?>
<!-- Created with Inkscape (http://www.inkscape.org/) -->

<svg
   xmlns:dc="http://purl.org/dc/elements/1.1/"
   xmlns:cc="http://creativecommons.org/ns#"
   xmlns:rdf="http://www.w3.org/1999/02/22-rdf-syntax-ns#"
   xmlns:svg="http://www.w3.org/2000/svg"
   xmlns="http://www.w3.org/2000/svg"
   xmlns:sodipodi="http://sodipodi.sourceforge.net/DTD/sodipodi-0.dtd"
   xmlns:inkscape="http://www.inkscape.org/namespaces/inkscape"
   width="200"
   height="200"
   viewBox="0 0 200 200"
   id="svg4267"
   version="1.1"
   inkscape:version="0.91 r13725"
   sodipodi:docname="Spotify.svg">
  <defs
     id="defs4269" />
  <sodipodi:namedview
     id="base"
     pagecolor="#ffffff"
     bordercolor="#666666"
     borderopacity="1.0"
     inkscape:pageopacity="0.0"
     inkscape:pageshadow="2"
     inkscape:zoom="1.4142136"
     inkscape:cx="15.381543"
     inkscape:cy="44.798827"
     inkscape:document-units="px"
     inkscape:current-layer="layer1"
     showgrid="false"
     units="px"
     inkscape:window-width="1858"
     inkscape:window-height="1057"
     inkscape:window-x="1974"
     inkscape:window-y="-8"
     inkscape:window-maximized="1" />
  <metadata
     id="metadata4272">
    <rdf:RDF>
      <cc:Work
         rdf:about="">
        <dc:format>image/svg+xml</dc:format>
        <dc:type
           rdf:resource="http://purl.org/dc/dcmitype/StillImage" />
        <dc:title />
      </cc:Work>
    </rdf:RDF>
  </metadata>
  <g
     inkscape:label="Layer 1"
     inkscape:groupmode="layer"
     id="layer1"
     transform="translate(0,-852.36216)">
    <path
       style="fill:#ffffff"
       d="m 86.681207,1041.126 c -1.05044,-0.2457 -4.8893,-1.1284 -8.530801,-1.9615 -21.085432,-4.8238 -41.451848,-19.2403 -53.34392,-37.76 -9.72811,-15.14976 -13.842175,-27.93111 -14.699821,-45.66868 -2.0264498,-41.91032 24.997059,-79.09345 66.070147,-90.90957 6.632159,-1.90797 9.780288,-2.19779 23.873628,-2.19779 14.1552,0 17.17967,0.28094 23.61848,2.19392 15.71577,4.66919 27.44443,11.53035 39.12317,22.88672 11.2845,10.97299 18.43665,22.50859 23.07007,37.20935 13.25813,42.06497 -6.21897,87.70595 -45.90618,107.57275 -12.49701,6.2557 -21.80721,8.4341 -37.51819,8.7782 -7.615678,0.1669 -14.706145,0.1023 -15.756583,-0.1434 z m 54.588753,-50.05611 c 1.82308,-3.58609 0.13351,-5.96885 -6.91904,-9.75784 -8.03864,-4.31875 -18.43049,-7.90938 -28.42608,-9.82185 -13.726777,-2.62638 -42.114909,-1.31387 -53.867721,2.49051 -5.390751,1.74499 -6.353229,6.95008 -1.830133,9.8974 1.812801,1.18124 3.469439,1.10832 13.05807,-0.57477 8.95724,-1.57225 13.710707,-1.84391 25.783512,-1.47352 17.347832,0.53222 25.396692,2.35619 38.573742,8.74121 9.19573,4.45585 11.57182,4.54283 13.62765,0.49886 z m 10.10876,-23.10853 c 2.27261,-2.62829 2.10888,-7.01308 -0.35381,-9.47578 -2.95767,-2.95769 -18.17603,-9.89969 -27.80297,-12.68262 -20.11424,-5.81455 -47.058592,-6.86472 -65.880023,-2.5677 -10.198468,2.32836 -11.616418,3.05455 -13.138313,6.72873 -1.013827,2.44762 -0.960207,3.26082 0.346502,5.25512 2.874566,4.38714 4.651269,4.67366 14.258655,2.29939 11.802154,-2.91665 37.867072,-3.18717 50.313649,-0.5222 10.95318,2.34522 20.99524,5.85457 29.54023,10.32331 7.55069,3.94875 9.7602,4.06026 12.71608,0.64175 z m 12.29112,-28.10519 c 2.7389,-2.91544 2.88613,-8.05153 0.31416,-10.95913 -2.31533,-2.61747 -14.66794,-8.50787 -24.71909,-11.78739 -19.1966,-6.26358 -44.567439,-9.11022 -65.351175,-7.33247 -15.211001,1.30108 -29.208011,4.16454 -32.592413,6.66763 -5.200954,3.8466 -4.856114,10.52612 0.711272,13.77766 3.03894,1.77484 3.222385,1.77206 11.51465,-0.17475 31.11221,-7.30429 69.121056,-3.47836 96.352946,9.69878 7.6546,3.70395 10.37267,3.72561 13.76965,0.10967 z"
       id="path5734"
       inkscape:connector-curvature="0" />
  </g>
</svg>
